<svg xmlns="http://www.w3.org/2000/svg" xmlns:xlink="http://www.w3.org/1999/xlink" width="114" height="57" viewBox="0 0 114 57">
  <defs>
    <style>
      .cls-1 {
        fill: #fff;
        fill-rule: evenodd;
        filter: url(#filter);
      }
    </style>
    <filter id="filter" x="1195" y="240" width="114" height="57" filterUnits="userSpaceOnUse">
      <feOffset result="offset" dx="0.588" dy="0.809" in="SourceAlpha"/>
      <feGaussianBlur result="blur" stdDeviation="2.236"/>
      <feFlood result="flood" flood-color="#5b8f96" flood-opacity="0.68"/>
      <feComposite result="composite" operator="in" in2="blur"/>
      <feBlend result="blend" in="SourceGraphic"/>
    </filter>
  </defs>
  <path id="Head_to" data-name="Head to" class="cls-1" d="M1212.09,266.718c1.44-6.956,4.5-16.432,4.17-21.22-0.14-1.915-1.65-1.989-3.2-1.88-0.06,0-.48.094-0.46,0.333,0.04,0.539.38,1.116,0.43,1.834,0.14,2.035-4.44,20.639-5.19,22.856-1.39,1.661-3.63,4.043-4.66,5.619-0.97,1.512-1.89,3.019-2.74,4.643-0.47,1-1.95,4.767-2.4,5.16a0.448,0.448,0,0,0,.27.4c0.2,0.286.33,0.458,0.52,0.684l0.01,0.12a4.142,4.142,0,0,1,1.37,2.31c0.13,0.231.51,1.227,0.92,1.2a1.809,1.809,0,0,1,.73.07c5.43-4.11,8.89-16.5,9.45-17.923,1.5-1.729,6.76-3.061,9.03-3.22-1.64,6.61-3.09,14.169-2.7,18.05,0.5,3.634,1.15,2.686,1.71,3.729v0.12l0.12-.009-0.09-.534,0.12,0.052a1.109,1.109,0,0,0,.72.851l-0.14-.291a5.68,5.68,0,0,0,1.24.515l-0.01-.18c-0.02-.18-0.03-0.359-0.04-0.539l0.25,0.163c-0.01-.12-0.3-0.881-0.31-1l0.07,0.115c-0.14-1.073-.09-1.2-0.18-1.731-0.23-2.39,1.57-14.423,3.08-19.4a11.444,11.444,0,0,1,4.4.954c-0.13-.171-0.09-0.414-0.22-0.645a1.642,1.642,0,0,0,.56.321,1.278,1.278,0,0,0,.33-0.444,3.5,3.5,0,0,0-.53-0.685l0.05-.123a6.274,6.274,0,0,0-3.92-1.95c0.91-4.153,3.61-15.288,3.38-16.836a1.112,1.112,0,0,0-.43-1.052c-0.1-.534-0.64-0.5-1.06-0.467-0.65.047-.56-0.321-1.16-0.279a0.867,0.867,0,0,1-.36-0.035l-0.22.257c0.08,0.355.17,0.709,0.24,0.945-0.91,5.055-2.79,12.4-4.03,17.061a11.031,11.031,0,0,0-1.38.037A19.913,19.913,0,0,0,1212.09,266.718ZM1202.3,283.1a78.646,78.646,0,0,1,4.23-8.235c-1.13,2.725-3.29,7.988-4.74,9.474Zm32.73,0.107c-0.52.4-1.2,0.926-1.66,1.259l-0.48-.026c-1.91-1.43-1.12-8.161-.47-10.07a7.943,7.943,0,0,0,4.14-1.914c3.56-3.138,2.56-8.058-.91-7.814l-0.18.012c-3.47.364-7.87,9.633-7.22,15.421,0.4,3.159,1.13,5.814,4.41,6.305a1.2,1.2,0,0,0,.49.026,1.946,1.946,0,0,0,1.73-.964l0.23-.2-0.2-.286,0.23-.077A3.959,3.959,0,0,0,1235.03,283.209Zm1.29-16.748c0.4,0.633-.13,2.474-0.51,3.042a4.952,4.952,0,0,1-2.6,2.408A13.957,13.957,0,0,1,1236.32,266.461Zm5.99,13.47-0.08-.355c-0.21-3.052,1.89-8.251,4.01-10.565a1.7,1.7,0,0,1,.98-0.61,1.743,1.743,0,0,1,1.19.639C1246.48,272.422,1244.36,276.54,1242.31,279.931Zm8.51,5.537c0.07-4.155,2.36-12.614,3.19-16.281a16.391,16.391,0,0,0,.84-4.328c-0.09-1.2-2.14-1.294-3.04-1.23a0.685,0.685,0,0,0-.51.337l0.2,0.286c-0.71,1.012-1.3,2.076-1.9,2.9a4.59,4.59,0,0,0-3.63-1.069c-3.77.265-7.59,9.253-7.1,12.827,0.26,1.906,1.85,4.02,4.12,3.86,1.98-.139,5.65-7.853,6.92-10.228l0.06,0c-0.45,2.076-1.96,7.114-1.7,10.884l0.04,0.6a1.78,1.78,0,0,0,.75,1.211l0.5,0.265-0.04.3,0.22-.316,0.56,0.261C1250.4,285.5,1250.89,285.643,1250.82,285.468Zm14.57-20.327a5.037,5.037,0,0,0-2.06-.336c-4.67.327-7.44,9.783-7.29,13.561,0.04,1.5.4,3.219,1.89,3.836a4.853,4.853,0,0,0,1.64.186c3.11-.219,4.85-5.392,5.91-8.293,1.57-4.26,2.68-8.066,4.49-12.343-1.56,6.9-3.64,15.049-3.38,22.187,0.08,1.979.54,2.548,1.65,2.951a0.968,0.968,0,0,1,.52.565l-0.01-.239-0.07-.175,0.29-.081a0.652,0.652,0,0,0,.38.214,0.674,0.674,0,0,0-.16-0.47l0.06-.064a0.578,0.578,0,0,0,.18.047,2.027,2.027,0,0,0-.1-0.594l0.06,0a1.473,1.473,0,0,0,.16-1.094c-0.26-9.723,4.3-25.318,4.09-30.836a6.346,6.346,0,0,0-.39-2.138,1.8,1.8,0,0,1-.63-0.437,1.933,1.933,0,0,0-.79-0.184,0.907,0.907,0,0,0-.57.52,0.929,0.929,0,0,0-.4.269l-0.04.244a10.446,10.446,0,0,1-1.1,2.422C1268.12,258.515,1266.84,261.732,1265.39,265.141Zm-0.73,2.337c-1.23,3.152-3.43,10.343-4.96,12.435a2.117,2.117,0,0,1-.5-0.265c-0.09-3.783,1.51-9.307,4.14-12.018a0.806,0.806,0,0,1,.53-0.158A2.96,2.96,0,0,1,1264.66,267.478Zm22.76,16.683c-0.78,0-1.13-4.913-1.17-5.571a41.622,41.622,0,0,1,.58-7.979c0.92-2.29,3.59-7.89,4.92-13.816l0.9-.063a13.218,13.218,0,0,1,3.68.162,2.106,2.106,0,0,0-.11-0.654c-0.08-1.2-2.44-1.452-4.07-1.518a26.078,26.078,0,0,0,.27-4.709,1.4,1.4,0,0,0,.18-0.855l-0.09-.355a1.029,1.029,0,0,0-.81-0.484,0.235,0.235,0,0,1-.18.073,1.784,1.784,0,0,1-.42-0.091c-0.06.005-.24,0.077-0.3,0.081l-0.29.141a1.019,1.019,0,0,0-.61-0.138c-0.81.478-2.04,3.451-2.34,4.374-0.3.863-.6,1.786-0.9,2.649a45.882,45.882,0,0,1-6.11,1.091l-1.57-.07,0.03,0.479a2.187,2.187,0,0,0,.5,1.047,3.5,3.5,0,0,0,2.13.392,36.3,36.3,0,0,0,4.35-.606,64.547,64.547,0,0,0-2.81,21.666c0.11,1.556.73,6.143,3.03,6.342,0.54,0.022.22-.316,0.28-0.32a2.558,2.558,0,0,0,.74.249,0.307,0.307,0,0,0,.28-0.261l-0.42-.03,0.59-.1,0.17-.132-0.01-.12a1.334,1.334,0,0,1,.29-0.2l0.36-.026,0.04-.243a0.33,0.33,0,0,1,.17-0.132l-0.06-.056A7.068,7.068,0,0,1,1287.42,284.161Zm0.37-22.1a10.288,10.288,0,0,1,.54-2.683l-0.01-.06a8.705,8.705,0,0,0,.51-2.141,2.1,2.1,0,0,0,.6-0.1C1288.84,258.984,1288.09,261.141,1287.79,262.064Zm2.26-7.254-0.42.029,0.46-1.175c0.11-.128.17-0.192,0.17-0.192A2.838,2.838,0,0,1,1290.05,254.81Zm10.61,8.877c0.31-.624.57-0.4,0.75-1.316a1.751,1.751,0,0,0-1.93-.947l-0.48.034-0.72.11-0.27.32c-0.43,1.714-5.3,10.3-4.67,15.723a3.288,3.288,0,0,0,3.82,3.04c2.09-.207,4.02-3.47,4.62-5.256a25.994,25.994,0,0,0,1.2-7.782,6.88,6.88,0,0,0-1.18-3.1A2.406,2.406,0,0,0,1300.66,263.687Zm-4.17,15.146a2.02,2.02,0,0,0-.1-0.594c-0.2-1.129.41-4.419,1.08-6.871a51.21,51.21,0,0,1,2.09-5.319,2.083,2.083,0,0,1,.35.757c0.39,2.86-1.09,9.278-3.03,11.639A0.5,0.5,0,0,1,1296.49,278.833Z" transform="translate(-1195 -240)"/>
</svg>
