<svg xmlns="http://www.w3.org/2000/svg" viewBox="0 0 400.83 250.37"><defs><style>.cls-1{fill:#02abcc;}</style></defs><g id="Layer_2" data-name="Layer 2"><g id="Lifestyle_Solutions" data-name="Lifestyle Solutions"><path class="cls-1" d="M12.81,112.7h.9c7.09,0,24-6.63,36.47-11-.15.15-.3.61,0,.76-.9.3-3.77,1.66-3.62,2.26a1.48,1.48,0,0,0-.45,1.2l.15.3c-.15.16-.75.31-.9.61a12.67,12.67,0,0,0-3.47,2.71c-1.8.45-5.27,1.51-6.93,2.71l-.3.45A26.62,26.62,0,0,1,32,114.51c-8,4.07-9,4.37-17.94,4.37C3.92,118.88,0,110,0,101,0,83.47,19.44,36.3,29.84,22l1.81-2.26L35,18.37c1.36,0,2.41.45,2.41,2.11l.3,1.66c.31,1.2-2,6.48-2.41,8.44a80.35,80.35,0,0,0-3.46,7.83c.15-1.66,1.81-5.42,1.35-6.48C26.52,46,8.59,87.84,8.59,104.57,8.59,107.43,8.59,112.25,12.81,112.7Z"/><path class="cls-1" d="M72.48,71h.3a8.75,8.75,0,0,1,3.92-1.2c.91,0,2.71.6,2.71,2,0,2-.9,4.67-1.2,6.78-1.81,9.64-6.93,21.24-6.93,30.59a10.69,10.69,0,0,0,.6,4.37h-.6l-.46-.3h-.6l.15.3-.3.9-.3-.15c-.45-.45-.6-.45-.9-.45-3.62-1.06-5.28-4.82-5.28-8.29,0-9,3.62-24.56,7.69-32.7V72l.45-.46C71.88,71.56,72.48,71.26,72.48,71Zm5.88-6.18c-.45,0-1.06.46-1.66.46-.15,0-.15-.31-.3-.31-.6,0-.75.61-1.21.61s-.6-1.81-.6-2.11c0-1.66.76-2.72,1.81-4.22a5.52,5.52,0,0,1,2.11-.3h1.66c.9.3,2.56,1.2,2.56,2.26,0,.9-2.11,3.61-3.32,3.76h-.15c-.45,0-.45.15-.45.31C78.81,64.93,78.36,64.78,78.36,64.78Z"/><path class="cls-1" d="M117.69,76.13l.3.45c2.71,5.88,4.22,14.62,5.73,21.1,1.65,9,.9,28.18-3.62,37.07l-.15.15.15-.45a32,32,0,0,1-5.43,8.89c-.75,2-4.52,4.22-6.63,4.82l-.3.61a2.23,2.23,0,0,0-.9.15c-11.3,0-13.72-12.36-14.47-21.4-1.35-15.67,2.56-36.62,8-53.8.15-.9,1.66-5.88,1.81-6.18-.15-.15-1.81-.9-1.81-1.35V66c.75-.31,1.51-.15,2.26-.76.45-.45,1-2.86,1.51-3.61,5.57-17.94,13.56-38.73,23.35-54.56,1.06-1.81,3.32-4.22,4.07-6C131.85.63,134,0,135.17,0h.6c1.21-.3,4.82,1.66,5.13,3.17a13.12,13.12,0,0,0,.15,2.26c.9,11.45-11.76,39.93-19.44,47.77a4.72,4.72,0,0,1-1.36.15c.9-1.36,1.66-3.92,2.41-5.58,2.56-6.93,13-31.8,12.21-38.58-3,3.32-23.06,53.65-22.61,57.42,0,.75.76,1,1.21,1.66a8.43,8.43,0,0,1,1.36,1.8c.45.46.75,1.51,1.35,2.11Zm-16.58,42.5c0,.3.15.75.15.9.15,2.72-.45,5.73-.15,8.59.45,4.07,1.51,13.87,6.93,13.87,2-.15,3.32-3.62,4.07-5.28,4.22-9.19,5.88-22.15,5-32.1A101,101,0,0,0,109.85,74C107.44,80.35,102.62,100.24,101.11,118.63Z"/><path class="cls-1" d="M159.13,113.16l-.61.15.46.75-.61.45c-.45,1.36-2.71,2.11-4.52,2.11a2.92,2.92,0,0,1-1.2-.15c-8.14-1.81-9.5-8.59-10-16.57-.6-14.62,12.06-37.08,20.8-37.38H164c8.74,0,10.4,12.51.9,19.74-2.71,2.11-7.23,4.07-10.7,4.07-2,4.67-5.12,21.4-.6,25.32l1.21.15c1.2-.75,3-2,4.37-2.86A9.75,9.75,0,0,1,159.13,113.16ZM156.57,80.3c2-.15,5.27-2.86,6.93-5.57,1.05-1.36,2.71-5.88,1.81-7.54C162.29,69.45,157.62,76.69,156.57,80.3Z"/><path class="cls-1" d="M189.72,104.12l.6.15-.9,1.2v.15l2-1.81c.15.46,0,.46.45.61l.45-.76.45.46c-.45.15-.75,1-.9,1.35l.9-.9.3.6L190,110l.15.61c2.86,0,8.14-2.87,8.14-6,0-4.83-10.1-15.37-10.1-24.87,0-8.74,9.64-18.08,18.39-18.08,1.8,0,9.34,4.52,9.34,6.33v.3c-.91,1.66-3,8.74-5.13,8.74-1.35,0-1.5-.6-2.41-.9a12.46,12.46,0,0,1,.61-3.92c.3-2.26,1.05-3.17-.91-4.07-4.52,0-11.75,7.08-11.75,11.6,0,7.24,9.64,16,9.64,24.72,0,6.93-8.29,12-14.61,12-2.57,0-7.09-3.77-7.09-6.48S189.11,104.27,189.72,104.12Z"/><path class="cls-1" d="M242.31,121.29l.15.16c-.15,0-.3.15-.45.3l-.15.6H241a3.28,3.28,0,0,0-.75.45v.3l-.45.3-1.51.15,1.06.16a.78.78,0,0,1-.76.6c-.6,0-1.35-.6-1.81-.76-.15,0,.61.91-.75.76-5.73-.91-6.48-12.51-6.48-16.43.3-18.68,4.52-36.77,10.85-53.8a88.4,88.4,0,0,1-11,.76,8.86,8.86,0,0,1-5.27-1.36A5.55,5.55,0,0,1,223,50.77V49.56l3.92.45c5,0,10.09-.9,15.52-1.65.9-2.11,1.81-4.37,2.71-6.48.91-2.26,4.52-9.5,6.63-10.55a2.54,2.54,0,0,1,1.51.45l.75-.3c.15,0,.61-.15.76-.15a4.65,4.65,0,0,0,1.05.3.55.55,0,0,0,.45-.15s2,.45,2,1.36l.15.9c0,.15-.15,2.11-.6,2.11a63.69,63.69,0,0,1-1.51,11.75c4.07.46,9.95,1.51,9.95,4.52,0,.16.3,1.36.15,1.66a33.28,33.28,0,0,0-9.19-1.05H255c-4.37,14.62-12.06,28.18-14.77,33.75a105.22,105.22,0,0,0-2.86,19.9c0,1.65,0,14,2,14.16C240.35,120.54,241.1,121.45,242.31,121.29ZM249.09,53a5.14,5.14,0,0,1-1.51.15,21.39,21.39,0,0,1-1.65,5.27v.15a25.16,25.16,0,0,0-1.81,6.64C245,63,247.28,57.7,249.09,53Zm2.71-8.89-.45.45L250,47.45h1.06C251.65,45.49,252.1,44.14,251.8,44.14Z"/><path class="cls-1" d="M271.69,106.07l.61-.6c1.8-.9,20.64-27.88,22.15-30.14,1.2-1.5,4.82-7.83,5.87-8.29h.76l.45.31,1.81-.61,1.51.3.75.46,1-.15.31.6v.6h.15l.45.9c-2,7.69-2.26,15.38-3.62,23.21-2.86,15.22-9.64,47.32-25,56.06h-.31l-2.26,1.21-2.41.75-3.31.15-2.41-.15a11.8,11.8,0,0,1-6.33-4.07l-1.51-2.26.3-.3,1.66-3.77a17.4,17.4,0,0,1,2.71-4.52l.3.91-.15,1.8h.3l.46,3,.3.9-.3.3.45.61.45,1.65.75.76,1.81.15v-.45a1.14,1.14,0,0,0,.6.3,2.13,2.13,0,0,0,.91-.3c8.89-3.17,14.92-15.68,19.29-29.24,4.52-13.26,6.78-27.12,8.59-34.66h-.3c-4.37,5.43-17,27.43-21.7,29.09a8.47,8.47,0,0,1-5,2.26c-.45,0-.75.15-1,.15-2.56,0-2.41-1.51-4.52-2.87a12,12,0,0,1-2.26-6.48c-.91-9.34,11.45-33.45,10.85-38.73h.9c1.81,0,3.92.15,5.13,1.66a4.56,4.56,0,0,1,.45,1.81C282.24,79.1,269.58,98.84,271.69,106.07Z"/><path class="cls-1" d="M338,119.79l.15.6.6.9v.16a10,10,0,0,1-1.51,1.2v.75l-.6.76h.45v.15l-.45.15a5.41,5.41,0,0,1-4.37,1.51l-.45.15a.84.84,0,0,1,.9.15H332c-.45,0-.91-.15-1.36-.15h-.15c-5.27-2.72-6-8-6.48-13.42C321.72,91.46,335.74,42,345.38,31a39.33,39.33,0,0,0,3.92-.45c.6,0,2.11,0,2.41.45a1.78,1.78,0,0,0,.6,1,11.84,11.84,0,0,1,.61,3.32c.9,11.15-11.61,39-17.79,51.23-1.81,8.9-3.46,18.39-2.86,27.13.15,3.16.45,5.88,1.81,8.44a1.61,1.61,0,0,1,.9.3c1.66,0,2.26-1.81,3-2.86Zm-.91-50.64a183.39,183.39,0,0,0,10-30C344.33,46,337.54,63,337.09,69.15Z"/><path class="cls-1" d="M377.78,113.16l-.6.15.45.75-.61.45c-.45,1.36-2.71,2.11-4.52,2.11a2.92,2.92,0,0,1-1.2-.15c-8.14-1.81-9.49-8.59-9.95-16.57-.6-14.62,12.06-37.08,20.8-37.38h.45c8.74,0,10.4,12.51.91,19.74-2.72,2.11-7.24,4.07-10.7,4.07-2,4.67-5.13,21.4-.61,25.32l1.21.15c1.2-.75,3-2,4.37-2.86A9.75,9.75,0,0,1,377.78,113.16ZM375.22,80.3c2-.15,5.27-2.86,6.93-5.57,1.05-1.36,2.71-5.88,1.81-7.54C380.94,69.45,376.27,76.69,375.22,80.3Z"/><path class="cls-1" d="M60.13,206.66c.9.16,2.26.16,2.86.76a6.23,6.23,0,0,1-2,.45c.45.6.6.75.6,1.06l-.15.45.46.15c-.46.75-12.06,3.77-14.32,4.52-2.26,13.26-18.23,29.84-33.45,29.84-1.51,0-3.92-.61-4.83-2.11-.75-1.21-4.52-6-4.52-7.09,5.73-9.79,23.66-20,34.36-23.65-.3-1.36-2.11-3.32-3-4.07-11.61-7.39-32.55-6.33-32.55-23.66,0-14.47,24.11-39.94,44.15-39.94a22.66,22.66,0,0,1,3.17.3c11.15,3.47,11.75,7.84,11.75,18.54,0,1.51-1.06,3.92-2.86,3.92-5.13,0-1.36-15.67-11.31-15.67-14,0-36.46,20.79-36.46,34.5,0,10.85,30.13,8.59,34.5,22.91a76.53,76.53,0,0,1,13.27-2.11ZM14,236.05c8.59,0,20.5-11,23.21-16.58a2.86,2.86,0,0,0,.45-1.2c-5.42,1.2-24.56,14.31-25.46,17.48A9,9,0,0,0,14,236.05Z"/><path class="cls-1" d="M96.44,197.92c1.66,2.42,2.11,5.28,2.41,8,.15,5.13-2.56,14.62-4.37,19.29-1.81,4.37-7.23,12.21-12.5,12.36-5.43,0-8.44-2.87-9-8.29-.6-13.71,13.11-34.36,14.47-38.58l.75-.75,1.81-.15h1.21c2.26,0,3.46.45,4.67,2.71-.6,2.26-1.21,1.66-2.11,3.16C95.09,196.57,95.84,196.72,96.44,197.92ZM81.67,232c5.28-5.57,10.1-21.4,9.65-28.63,0-.75-.45-1.21-.76-2-3.16,5.12-5.57,12.06-6.17,13-2.11,6-4.22,14.17-3.92,17a4.66,4.66,0,0,1,.15,1.51A1.3,1.3,0,0,0,81.67,232Z"/><path class="cls-1" d="M130.2,243.89l.15.6.6.9v.15a10,10,0,0,1-1.51,1.21v.75l-.6.76h.45v.15l-.45.15a5.44,5.44,0,0,1-4.37,1.51l-.45.15a.84.84,0,0,1,.9.15h-.75c-.45,0-.91-.15-1.36-.15h-.15c-5.27-2.72-6-8-6.48-13.42-2.26-21.24,11.76-70.67,21.4-81.67.6-.15,3.16-.15,3.92-.45.6,0,2.11,0,2.41.45a1.78,1.78,0,0,0,.6,1.05,11.84,11.84,0,0,1,.6,3.32c.91,11.15-11.6,39-17.78,51.23-1.81,8.89-3.46,18.39-2.86,27.13.15,3.16.45,5.88,1.81,8.44a1.61,1.61,0,0,1,.9.3c1.66,0,2.26-1.81,3-2.86Zm-.91-50.64a184.67,184.67,0,0,0,10-30C136.52,170.05,129.74,187.07,129.29,193.25Z"/><path class="cls-1" d="M148.43,226.1c0-12.65,9.49-28.33,9.49-35.71.45-.3.6-.45.91-.45a6.75,6.75,0,0,1,1.2.3c2.26.3,4.82,1.51,5,3.16,1.06,10.4-8.13,21.85-8.13,33.31l.45.15c2,.45,17.78-27.28,21.1-31.65h.15a14,14,0,0,1,4.37-.75,6.6,6.6,0,0,1,3.61,1.66,4.37,4.37,0,0,1,.16,2c-.91,3.46-3,11.45-4.53,17.63-1.8,8.44-3.46,16.12-4.06,23.51h-.46l-.15,1.65-1.81-1.5-.15.75-.75.3-3.32-2.56v-.6h-.15l-.3-2.11c0-8.29,2.11-14.47,3.92-22.31v-.6c-3,5.27-12,22.45-19.59,22.45C151,234.69,148.43,229.87,148.43,226.1Z"/><path class="cls-1" d="M215.49,245.39l.15.15c-.15,0-.31.16-.46.31l-.15.6h-.9a3.28,3.28,0,0,0-.75.45v.3l-.46.3-1.5.15,1.05.15a.76.76,0,0,1-.75.61c-.61,0-1.36-.61-1.81-.76-.15,0,.6.91-.75.76-5.73-.91-6.48-12.51-6.48-16.43.3-18.68,4.52-36.77,10.85-53.8a88.53,88.53,0,0,1-11,.76,8.87,8.87,0,0,1-5.28-1.36,5.62,5.62,0,0,1-1.05-2.71v-1.21l3.91.45c5,0,10.1-.9,15.53-1.65.9-2.11,1.8-4.37,2.71-6.48s4.52-9.5,6.63-10.55a2.59,2.59,0,0,1,1.51.45l.75-.3c.15,0,.6-.15.75-.15a4.78,4.78,0,0,0,1.06.3.55.55,0,0,0,.45-.15s2,.45,2,1.35l.15.91c0,.15-.15,2.11-.6,2.11a64.56,64.56,0,0,1-1.51,11.75c4.07.46,9.95,1.51,9.95,4.52,0,.16.3,1.36.15,1.66a33.35,33.35,0,0,0-9.2-1h-2.26c-4.37,14.61-12,28.18-14.76,33.75a105.23,105.23,0,0,0-2.87,19.89c0,1.66,0,14,2,14.17C213.53,244.64,214.28,245.54,215.49,245.39Zm6.78-68.26a5.2,5.2,0,0,1-1.51.15,21,21,0,0,1-1.66,5.27v.15a25.54,25.54,0,0,0-1.81,6.64C218.2,187.07,220.46,181.8,222.27,177.13Zm2.71-8.89-.45.45-1.36,2.86h1.06C224.83,169.59,225.28,168.24,225,168.24Z"/><path class="cls-1" d="M248,195.06h.3a8.75,8.75,0,0,1,3.92-1.2c.91,0,2.72.6,2.72,1.95,0,2-.91,4.68-1.21,6.79-1.81,9.64-6.93,21.24-6.93,30.59a10.69,10.69,0,0,0,.6,4.37h-.6l-.45-.3h-.61l.15.3-.3.9-.3-.15c-.45-.45-.6-.45-.9-.45-3.62-1.06-5.28-4.82-5.28-8.29,0-9,3.62-24.56,7.69-32.7v-.75l.45-.46C247.43,195.66,248,195.36,248,195.06Zm5.88-6.18c-.45,0-1.06.46-1.66.46-.15,0-.15-.31-.3-.31-.6,0-.75.61-1.2.61-.61,0-.61-1.81-.61-2.11,0-1.66.76-2.72,1.81-4.22a5.52,5.52,0,0,1,2.11-.3h1.66c.9.3,2.56,1.2,2.56,2.26,0,.9-2.11,3.61-3.31,3.76h-.16c-.45,0-.45.15-.45.31C254.36,189,253.91,188.88,253.91,188.88Z"/><path class="cls-1" d="M295.05,197.92c1.66,2.42,2.11,5.28,2.41,8,.15,5.13-2.56,14.62-4.37,19.29-1.81,4.37-7.24,12.21-12.51,12.36-5.42,0-8.44-2.87-9-8.29-.6-13.71,13.11-34.36,14.47-38.58l.75-.75,1.81-.15h1.2c2.26,0,3.47.45,4.67,2.71-.6,2.26-1.2,1.66-2.1,3.16C293.69,196.57,294.44,196.72,295.05,197.92ZM280.28,232c5.27-5.57,10.1-21.4,9.64-28.63,0-.75-.45-1.21-.75-2-3.16,5.12-5.58,12.06-6.18,13-2.11,6-4.22,14.17-3.92,17a4.66,4.66,0,0,1,.15,1.51A1.3,1.3,0,0,0,280.28,232Z"/><path class="cls-1" d="M324.28,192.2l-.6-.76c1.2,0,2.56.61,3.76.61h.31a4,4,0,0,1,3.16,2.26l.3,1.5-2.56,12.51c1.81-2.56,8.89-11.75,11.91-12.2.6,0,1.2-.15,1.95-.15,2.72,0,5.28.75,6,4.21.91,3.62,1.06,9.35-.75,16.58-1.36,6-2.86,10.7-3.92,17a1.8,1.8,0,0,1-.6,1.66c-.3.15-.46-.45-.61-.76l-.3.31-.3.75a.9.9,0,0,1-.6.15c-.45-.15-2.26-.3-2.11-.9v-.46l-.3.15c-1.21-.75-1.36-3.16-1.36-4.37,0-8.89,5.12-19.28,4.07-27.27-6.93,6.33-15.07,21.85-18.08,33.3l-.61.91v.15l-.6.75-.3-.6-.6.6-.61.15c-.75.3-1.5.91-2.11,1.21-3.61-1.81-2.86-3.47-3.16-7.24C314.94,225.5,322.92,203.05,324.28,192.2Z"/><path class="cls-1" d="M374.61,228.21l.6.16-.9,1.2v.15l2-1.81c.15.46,0,.46.45.61l.45-.76.45.45c-.45.16-.75,1.06-.9,1.36l.9-.9.3.6-3,4.82.15.6c2.86,0,8.14-2.86,8.14-6,0-4.83-10.1-15.37-10.1-24.87,0-8.74,9.65-18.08,18.39-18.08,1.81,0,9.34,4.52,9.34,6.33v.3c-.9,1.66-3,8.74-5.12,8.74-1.36,0-1.51-.6-2.41-.91a12.42,12.42,0,0,1,.6-3.91c.3-2.26,1.05-3.17-.91-4.07-4.52,0-11.75,7.08-11.75,11.6,0,7.24,9.64,16,9.64,24.72,0,6.93-8.28,12-14.61,12-2.57,0-7.09-3.77-7.09-6.48S374,228.37,374.61,228.21Z"/></g></g></svg>