<svg xmlns="http://www.w3.org/2000/svg" xmlns:xlink="http://www.w3.org/1999/xlink" width="159" height="54" viewBox="0 0 159 54">
  <defs>
    <style>
      .cls-1 {
        fill: #fff;
        fill-rule: evenodd;
        filter: url(#filter);
      }
    </style>
    <filter id="filter" x="694" y="244" width="159" height="54" filterUnits="userSpaceOnUse">
      <feOffset result="offset" dx="0.588" dy="0.809" in="SourceAlpha"/>
      <feGaussianBlur result="blur" stdDeviation="2.236"/>
      <feFlood result="flood" flood-color="#5b8f96" flood-opacity="0.68"/>
      <feComposite result="composite" operator="in" in2="blur"/>
      <feBlend result="blend" in="SourceGraphic"/>
    </filter>
  </defs>
  <path id="Want_more" data-name="Want more" class="cls-1" d="M729.787,281.7a225.365,225.365,0,0,0,4.152-23.084,11.606,11.606,0,0,0,.477-2.619l-0.016-.239-0.223.256a10.85,10.85,0,0,0,.408-1.893l-0.076-.235a1.366,1.366,0,0,0,.03-0.424l-0.188-.107a8.729,8.729,0,0,1,.215-1.217l-0.192-.167-0.286.2a0.835,0.835,0,0,0-.038-0.538c-0.214.375-.313,0.683-0.527,1.059l-0.073-.175,0.091-.428-0.06,0c-2.937,4.415-6.666,34.385-9.185,35.344a12.3,12.3,0,0,1-1.135-5.032c-0.107-3.24-.153-8.168.039-11.429,0.167-3.62.5-7.372,0.373-10.971-0.121-2.578-.1-6.608-3.1-6.4a5.052,5.052,0,0,0-1,.311,2.959,2.959,0,0,0-1.378.938c-6.727,6.968-12.079,32.661-15.354,33.974-0.9.063-1.411-3.81-1.4-4.592a11.926,11.926,0,0,1,.156-2.056,0.946,0.946,0,0,1,.065-0.786l-0.124-.052c-0.162-4.018,2.184-17.713,3.138-22.11,0.546-2.5,1.478-6.358,1.362-8.876A4.813,4.813,0,0,0,705.66,249c-0.64-.557-0.605-0.92-0.973-1.015a1.854,1.854,0,0,0-.6-0.017,2.789,2.789,0,0,0-1,.251c-0.984.55-.1,1.209-0.942,4.576,0.025,0.359-3.542,17.207-4.071,19.951l0.008,0.119a24.507,24.507,0,0,1-.4,2.915,41.919,41.919,0,0,0-.273,7.235c0.191,4.437.954,9.315,5.622,8.987a3.086,3.086,0,0,0,1.856-.972c1.386-.819,2.945-3.454,3.871-5.684a38.792,38.792,0,0,0,2.38-6.362c0.94-3.734,7.235-21.135,8.865-21.911,0,0,.012.18,0.017,0.24,0.269,7.257-.967,14.5-0.642,21.694,0.052,3.3.081,10.579,3.974,11.207a6.294,6.294,0,0,0,.979.232,3.809,3.809,0,0,0,.637-0.345C728.462,288.53,729.19,283.488,729.787,281.7Zm7.946,0.885-0.085-.355c-0.215-3.052,1.886-8.251,4.009-10.565a1.707,1.707,0,0,1,.979-0.61,1.733,1.733,0,0,1,1.188.639C741.9,275.078,739.78,279.2,737.733,282.587Zm8.507,5.537c0.069-4.155,2.362-12.614,3.187-16.281a16.032,16.032,0,0,0,.838-4.328c-0.084-1.2-2.135-1.294-3.033-1.231a0.717,0.717,0,0,0-.517.337l0.2,0.287c-0.711,1.012-1.3,2.076-1.9,2.9a4.571,4.571,0,0,0-3.623-1.069c-3.77.265-7.589,9.253-7.1,12.827,0.255,1.906,1.846,4.02,4.12,3.86,1.975-.139,5.643-7.853,6.919-10.228l0.06,0c-0.455,2.076-1.966,7.114-1.7,10.884l0.042,0.6a1.754,1.754,0,0,0,.746,1.211l0.5,0.265-0.039.3,0.219-.316,0.559,0.261C745.821,288.153,746.312,288.3,746.24,288.124Zm5.431-4.05c0.225,1.488-.028,2.167,1.459,2.784,0.231-.136.513-0.4,0.8-0.537l0.235-.077,0.222-.256,0.137,0.231,0.218-.316,0-.06,0.214-.376c0.878-4.632,3.676-11.023,6.253-13.729,0.641,3.142-1.1,7.414-.855,10.945a2.252,2.252,0,0,0,.66,1.7l0.115-.068,0.013,0.179c-0.043.244,0.679,0.253,0.863,0.3a0.364,0.364,0,0,0,.235-0.077l0.1-.308,0.111-.128c0.068,0.116.145,0.351,0.261,0.283a0.716,0.716,0,0,0,.193-0.675c0.242-2.543.71-4.44,1.081-6.872a14.147,14.147,0,0,0-.163-6.6,2.106,2.106,0,0,0-2.512-1.508c-0.3.021-.534,0.1-0.773,0.115-1.185.263-3.741,4.111-4.388,5.179l0.669-5.039-0.162-.59a1.584,1.584,0,0,0-1.319-.809l-0.12.008c-0.479.034-1.034-.168-1.513-0.134l0.26,0.282C753.728,272.263,751.183,281.4,751.671,284.074Zm20.334,3.5c-0.782,0-1.127-4.912-1.173-5.57a41.944,41.944,0,0,1,.582-7.979c0.922-2.29,3.6-7.89,4.923-13.817l0.9-.063a13.228,13.228,0,0,1,3.68.163,2.271,2.271,0,0,0-.106-0.654c-0.084-1.2-2.448-1.452-4.076-1.518a25.639,25.639,0,0,0,.271-4.71,1.372,1.372,0,0,0,.18-0.854l-0.085-.355a1.044,1.044,0,0,0-.815-0.484,0.221,0.221,0,0,1-.176.072,1.836,1.836,0,0,1-.427-0.09c-0.06,0-.235.077-0.3,0.081l-0.291.141a1.014,1.014,0,0,0-.611-0.138c-0.808.478-2.043,3.451-2.339,4.374-0.3.863-.6,1.786-0.9,2.649a46.287,46.287,0,0,1-6.118,1.091l-1.568-.07,0.033,0.478a2.239,2.239,0,0,0,.5,1.048,3.524,3.524,0,0,0,2.132.392,35.934,35.934,0,0,0,4.348-.606,64.543,64.543,0,0,0-2.809,21.666c0.109,1.556.732,6.143,3.031,6.342,0.543,0.022.219-.316,0.279-0.32a2.582,2.582,0,0,0,.739.248,0.3,0.3,0,0,0,.282-0.26l-0.423-.03,0.594-.1,0.171-.133-0.008-.119a1.339,1.339,0,0,1,.287-0.2l0.359-.025,0.043-.244a0.313,0.313,0,0,1,.171-0.132l-0.064-.055A7.015,7.015,0,0,1,772.005,287.577Zm0.373-22.1a10.083,10.083,0,0,1,.533-2.684l0-.059a8.551,8.551,0,0,0,.511-2.141,2.035,2.035,0,0,0,.594-0.1C773.424,262.4,772.674,264.558,772.378,265.481Zm2.256-7.255-0.418.03,0.458-1.175,0.167-.192A2.728,2.728,0,0,1,774.634,258.226Zm10.553,23.494a2.648,2.648,0,0,0,2.173,1.832l0.283-.26,0.239-.017,0.128,0.112,0.367,0.094c0.306-1.645,1.633-3.3,2.178-4.964,0.729-2.457,2.814-8.737,5.235-10.23l0,0.06a68.76,68.76,0,0,1-.534,10.381,0.574,0.574,0,0,1-.073.667l-0.1.367a7.35,7.35,0,0,1,1.451,1.823l0.116-.069,0.384,0.334,0.214-.376a2.461,2.461,0,0,0,.849.963l0.01-.722,0.243,0.043-0.012-.18,0.189-.735-0.025-.359a0.994,0.994,0,0,0,.244-0.8c0.748-3.059,3.165-8.882,5.36-11.02l0.094,0.474c0.2,3.655-1.123,9.7-.8,10.821,0.191,1.009.81,2.108,1.293,2.134l1.093,0.164,0.6-.042a0.466,0.466,0,0,1-.256-0.222c0.186-2.479,1.071-9.577.962-11.133a9.226,9.226,0,0,0-.066-1.8c-0.179-.829-0.994-2.155-1.9-2.271l-0.974-.173-0.5-.205-0.419.029a0.689,0.689,0,0,0-.7.35c-1.39.759-2.786,3.142-3.471,4.513l-0.231.137a17.5,17.5,0,0,0-.278-3.95,2.175,2.175,0,0,0-2.583-1.683c-0.24.017-.415,0.09-0.654,0.106l-0.735-.189c-2.15.212-5.2,6.38-6.1,8.246l0-.06c0.413-1.833,2.041-8.622,1.632-10.157a1.8,1.8,0,0,0-2.131-1.234c-0.179.013-.355,0.086-0.534,0.1l-0.112.128C786.934,268.067,783.8,276.586,785.187,281.72Zm31.178-16.8c0.317-.624.573-0.4,0.749-1.316a1.742,1.742,0,0,0-1.93-.947l-0.479.034-0.714.11-0.278.321c-0.421,1.713-5.291,10.294-4.669,15.723a3.292,3.292,0,0,0,3.821,3.039c2.091-.207,4.026-3.47,4.623-5.256a25.986,25.986,0,0,0,1.2-7.782,6.767,6.767,0,0,0-1.18-3.1A2.352,2.352,0,0,0,816.365,264.918ZM812.2,280.064a1.844,1.844,0,0,0-.1-0.594c-0.2-1.128.411-4.419,1.081-6.871a51.388,51.388,0,0,1,2.092-5.319,2.111,2.111,0,0,1,.354.757c0.381,2.86-1.093,9.278-3.032,11.639A0.512,0.512,0,0,1,812.2,280.064Zm13.75-2.048c1.232-4.717,3.2-10.027,7.256-13.138a3.6,3.6,0,0,1,1.45-.763,8.729,8.729,0,0,1,1,1.373l-0.008-.12s0.112-.97.108-1.03l-0.017-.239a2.913,2.913,0,0,1-.114-0.774,1.791,1.791,0,0,0-.358-0.816l-0.376-.215-0.359.026a4.5,4.5,0,0,0-.727-0.07c-3.83.269-7.068,6.39-8.577,9.743,0.482-2.559,2.177-8.391,2.039-10.366a1.8,1.8,0,0,0-1.82-1.075,2.622,2.622,0,0,1-.3-0.039,0.8,0.8,0,0,0-.466.213l-0.563,2.265c-1.185,4.533-3.322,11.78-3,16.387,0.151,2.155.284,2.326,2.048,3.465a0.3,0.3,0,0,1,.311.158l0.236-.076,0.123,0.051a1.8,1.8,0,0,0,.9-0.845A15.4,15.4,0,0,0,825.946,278.016Zm16.3,0c-0.513.4-1.2,0.926-1.655,1.258l-0.483-.026c-1.9-1.43-1.115-8.16-.467-10.07a7.935,7.935,0,0,0,4.135-1.914c3.569-3.137,2.562-8.058-.909-7.814l-0.18.012c-3.462.364-7.863,9.633-7.216,15.421,0.4,3.159,1.13,5.814,4.412,6.305a1.169,1.169,0,0,0,.483.027,1.952,1.952,0,0,0,1.736-.964l0.227-.2-0.2-.286,0.235-.077A3.848,3.848,0,0,0,842.245,278.015Zm1.29-16.749c0.405,0.633-.127,2.475-0.508,3.043a4.909,4.909,0,0,1-2.6,2.407A14.005,14.005,0,0,1,843.535,261.266Z" transform="translate(-694 -244)"/>
</svg>
