<svg xmlns="http://www.w3.org/2000/svg" xmlns:xlink="http://www.w3.org/1999/xlink" width="136" height="76" viewBox="0 0 136 76">
  <defs>
    <style>
      .cls-1 {
        fill: #fff;
        fill-rule: evenodd;
        filter: url(#filter);
      }
    </style>
    <filter id="filter" x="1774" y="27" width="136" height="76" filterUnits="userSpaceOnUse">
      <feOffset result="offset" dx="0.588" dy="0.809" in="SourceAlpha"/>
      <feGaussianBlur result="blur" stdDeviation="2.236"/>
      <feFlood result="flood" flood-color="#5b8f96" flood-opacity="0.68"/>
      <feComposite result="composite" operator="in" in2="blur"/>
      <feBlend result="blend" in="SourceGraphic"/>
    </filter>
  </defs>
  <path id="Shop_for" data-name="Shop for" class="cls-1" d="M1802.55,67.194a33.413,33.413,0,0,0-5.73,1.329c-2.35-6.124-15.46-4.211-15.79-8.954-0.42-5.995,8.76-15.775,14.88-16.206,4.35-.305,3.18,6.662,5.42,6.5,0.8-.056,1.18-1.142,1.14-1.8-0.33-4.677-.73-6.569-5.71-7.742a9.831,9.831,0,0,0-1.39-.035c-8.77.615-18.52,12.489-18.08,18.813,0.53,7.576,9.66,6.472,14.96,9.344a4.642,4.642,0,0,1,1.44,1.686c-4.57,1.909-12.09,6.94-14.3,11.4,0.04,0.461,1.83,2.454,2.2,2.957a2.619,2.619,0,0,0,2.17.774c6.65-.467,13.13-8.2,13.71-14.071,0.96-.4,5.94-2.073,6.12-2.416l-0.2-.052,0.05-.2a0.828,0.828,0,0,0-.3-0.443,2.765,2.765,0,0,0,.85-0.258,2.566,2.566,0,0,0-1.28-.241Zm-19.9,14.572c0.3-1.411,8.27-7.73,10.6-8.424a1.143,1.143,0,0,1-.16.541c-1.01,2.521-5.88,7.7-9.64,7.959A4.013,4.013,0,0,1,1782.65,81.765ZM1814.31,61.8c-3.36.236-7.23,9.181-8.26,12.5a47.5,47.5,0,0,1,1.98-11.394c0.82-1.646,4.47-11.767,1.1-12.656a6.5,6.5,0,0,0-1.53-.091l-0.11.339c1.18-.281-5.51,15.746-5.29,25.463a4.166,4.166,0,0,0,1.08,3.1,8.994,8.994,0,0,0,1.67.214c0.52-.037,1.39-0.031,1.98-0.073l0.39-.028c1.43-3.278,5.6-13.7,7.56-14.9,0.4,2.819-1.67,9.121-1.38,13.272a7.309,7.309,0,0,0,1.2,3.954l0.13-.009a3.534,3.534,0,0,1,.02-0.8,0.648,0.648,0,0,0,.15.32c0.05-.2,1.1-0.408,1.14-0.676l0.27-.019a2,2,0,0,1,.02-0.6l0.07,0,0.1,0.522,0.1-.47c0.49-5.33,1.8-10.189,1.44-15.262C1818.05,63.127,1815.84,61.891,1814.31,61.8Zm6.38,6.636a30.046,30.046,0,0,0-1.05,7.687c0.05,1.717.64,3.4,2.91,3.768a2.787,2.787,0,0,0,1.01.194l0.2-.014c4.81-1.2,7.62-10.2,7.02-15.058a4.94,4.94,0,0,0-3.6-4.117,8.593,8.593,0,0,1,2.12-2.8l-0.02-.264a2.517,2.517,0,0,0-1.83-.6c-0.26.019-.46,0.1-0.65,0.112C1824.7,57.694,1821.48,65.534,1820.69,68.436Zm2.64,9.348c-0.49-1.356,0-4.766.82-8.068,0.6-2.822,1.4-5.527,2.13-6.5l-0.01-.132c1.11,0.717,1.18,1.639,1.26,2.825a13.122,13.122,0,0,1-.5,4.272C1826.32,73.138,1824.83,76.487,1823.33,77.784Zm15.6-24.995c-0.52.037-.94-0.265-1.6-0.218a0.131,0.131,0,0,0-.13.075,2.882,2.882,0,0,0,.19.781c-1.45,9.5-5.01,23.92-4.51,31.9,0.1,1.515.25,4.484,2.29,4.341l0.76,0.542-0.02-.329-0.07-.061,0.2-.014,0.28,0.245a2.951,2.951,0,0,1-.18-0.65c-0.13-1.91.94-13.107,1.62-14.744a2.122,2.122,0,0,0,.75.41,20.876,20.876,0,0,0-.41,2.677c0.06,0.791,1.08,1.116,1.76,1.465l0.07,0a1.468,1.468,0,0,1,.88.335,2.008,2.008,0,0,1,.59-0.173c0.19-.014.4,0.038,0.59,0.024a1.422,1.422,0,0,0,.78-0.319c3.95-3.058,7.29-12.1,6.94-17.1-0.08-2.113-1.02-6.019-3.79-5.825-2.44.039-5.67,4.105-6.51,6.217,0.23-2.4.91-4.9,0.74-7.334C1840.16,54.225,1839.8,52.86,1838.93,52.789Zm0.11,20.383-0.01-.132c0.45-4,4.04-12.266,7.3-14.812l0.14,0.057a8.307,8.307,0,0,1-.1,5.237c-2.43,1.23-5.86,6.1-7.27,9.515Zm6.62-6.622,0.02,0.329c-0.54,1.759-1.28,3.466-1.94,5.3a1.241,1.241,0,0,0-.6.9c-1.08,1.6-1.75,3.3-3.19,4.593C1839.78,75.238,1843.79,67.211,1845.66,66.55Zm21.5-3.43c-0.28-.245-0.45-0.7-0.66-0.881a3.329,3.329,0,0,0-.65-0.749,1.382,1.382,0,0,1-.57-0.688c-0.32-1.633,6.9-24.252,8.11-25.793,0.54,2.941-3.24,14.13-4.15,17.239a21.837,21.837,0,0,1-.88,2.511,2.037,2.037,0,0,0,.59-0.108c3.12-3.661,7.78-16.5,7.03-21.48a5.194,5.194,0,0,1-.13-0.984,2.8,2.8,0,0,0-2.34-1.226l-0.27.018a2.972,2.972,0,0,0-1.54.572,31.48,31.48,0,0,1-1.6,2.76c-3.79,7.218-6.65,16.554-8.53,24.565-0.18.343-.37,1.416-0.55,1.627a2.938,2.938,0,0,1-.97.4l0.01,0.066a2.244,2.244,0,0,0,.83.537c-0.06.136-.56,2.357-0.6,2.756-1.85,7.677-2.92,16.954-1.84,23.764,0.61,3.93,2.04,9.258,6.98,8.911a0.975,0.975,0,0,1,.39-0.094l0.11-.273c0.91-.328,2.49-1.432,2.75-2.312a13.684,13.684,0,0,0,2.1-4.053l-0.05.2,0.06-.07c1.71-4.025,1.45-12.415.45-16.317-0.86-2.786-1.79-6.561-3.16-9.047l-0.14-.188Zm-2.71.985a44.337,44.337,0,0,1,4.1,13.151,30.224,30.224,0,0,1-1.19,14.185c-0.28.748-.76,2.3-1.62,2.431-2.37.166-3.13-4.083-3.45-5.848-0.22-1.242-.05-2.579-0.2-3.76,0-.066-0.08-0.259-0.09-0.391A90.684,90.684,0,0,1,1864.45,64.105Zm10.84,0.5a30.047,30.047,0,0,0-1.05,7.687c0.05,1.717.64,3.4,2.91,3.768a2.787,2.787,0,0,0,1.01.194l0.2-.014c4.81-1.2,7.62-10.2,7.02-15.057a4.94,4.94,0,0,0-3.6-4.117,8.593,8.593,0,0,1,2.12-2.8L1883.88,54a2.517,2.517,0,0,0-1.83-.6c-0.26.018-.46,0.1-0.65,0.112C1879.3,53.86,1876.08,61.7,1875.29,64.6Zm2.64,9.348c-0.49-1.356,0-4.766.83-8.068,0.59-2.822,1.39-5.527,2.12-6.5l-0.01-.132c1.11,0.717,1.18,1.639,1.26,2.825a13.121,13.121,0,0,1-.5,4.272C1880.92,69.3,1879.43,72.653,1877.93,73.949Zm15.14-2.387c1.36-5.193,3.53-11.039,7.99-14.463a3.987,3.987,0,0,1,1.59-.84,9.094,9.094,0,0,1,1.1,1.512l-0.01-.132s0.13-1.068.12-1.134l-0.02-.264a3.122,3.122,0,0,1-.12-0.852,1.9,1.9,0,0,0-.4-0.9l-0.41-.236-0.39.028a5.012,5.012,0,0,0-.8-0.076c-4.22.3-7.79,7.034-9.45,10.726,0.53-2.818,2.4-9.238,2.25-11.412-0.04-.527-0.88-1.13-2.01-1.183a2.955,2.955,0,0,1-.33-0.043,0.868,0.868,0,0,0-.51.235l-0.62,2.493c-1.31,4.991-3.66,12.968-3.3,18.04,0.16,2.372.31,2.56,2.25,3.814a0.327,0.327,0,0,1,.34.174l0.26-.084,0.14,0.057a1.966,1.966,0,0,0,.99-0.93C1892.56,74.71,1892.65,73.115,1893.07,71.562Z" transform="translate(-1774 -27)"/>
</svg>
