<svg xmlns="http://www.w3.org/2000/svg" viewBox="0 0 444.43 55.26"><defs><style>.cls-1{fill:#00accd;}</style></defs><g id="Layer_2" data-name="Layer 2"><g id="Layer_1_copy" data-name="Layer 1 copy"><path class="cls-1" d="M16.73,53.31H11.45V10.78H0V5.87H28.31v4.91H16.73Z"/><path class="cls-1" d="M35.29,5.87h24.6v4.91H40.58V24.87H59.32v4.91H40.58V48.4H59.89v4.91H35.29Z"/><path class="cls-1" d="M75.74,48.4H88.83v4.91H70.46V5.87h5.28Z"/><path class="cls-1" d="M100.9,48.4H114v4.91H95.62V5.87h5.28Z"/><path class="cls-1" d="M129.21,50.54a3.52,3.52,0,1,1-7,0,3.52,3.52,0,0,1,7,0Z"/><path class="cls-1" d="M148.84,39.85l-5.72,13.46h-5.79l21.89-49.7,21.33,49.7H174.7l-5.6-13.46Zm10.25-23.91-8.11,19h16Z"/><path class="cls-1" d="M194.13,50.54a3.52,3.52,0,1,1-7,0,3.52,3.52,0,0,1,7,0Z"/><path class="cls-1" d="M241,29.47c.12,6.41-.57,11.7-4.91,16.73a23.45,23.45,0,0,1-17.55,7.93,24.54,24.54,0,1,1,.31-49.07c8.31,0,15,3.71,20.07,10.25l-3.84,3.59c-4-5.6-9.31-8.94-16.29-8.94-10.82,0-19.38,9.12-19.38,19.82A19.14,19.14,0,0,0,205,43.18c3.46,3.46,8.49,6,13.46,6,8.24,0,16.92-6,16.92-14.85H221.28v-4.9Z"/><path class="cls-1" d="M254.24,48.4h13.09v4.91H249V5.87h5.28Z"/><path class="cls-1" d="M282.37,39.85l-5.73,13.46h-5.79l21.9-49.7,21.32,49.7h-5.85l-5.6-13.46Zm10.25-23.91-8.12,19h16.05Z"/><path class="cls-1" d="M327,3.17,344.2,43,361.5,3.17l9.63,50.14h-5.41l-6.1-32.09h-.13l-15.29,34L329,21.22h-.13l-6.1,32.09h-5.41Z"/><path class="cls-1" d="M434,53.26H433V46.58h-1.79v-.86h4.52v.86H434Z"/><path class="cls-1" d="M438,48.28h0l-.88,5h-1l1.54-7.85,2.59,5.93,2.59-5.93,1.54,7.85h-1l-.88-5h0l-2.26,5.14Z"/><path class="cls-1" d="M387.49,6.19l-11.32,18.7a3.28,3.28,0,0,0-.46,1.36l23.74-1.55Z"/><path class="cls-1" d="M421.53,54.08A3.38,3.38,0,0,0,422.6,53l11.34-18.74-22.09-2Z"/><path class="cls-1" d="M404.51,30.37a14.82,14.82,0,0,1-4-4L375.94,28a3.35,3.35,0,0,0,1.39,1.64l40.55,24.55a3.48,3.48,0,0,0,2,.49L409.88,32A15.06,15.06,0,0,1,404.51,30.37Z"/><path class="cls-1" d="M435.52,25.21,394.79.47a3.35,3.35,0,0,0-4.6,1.21l-1,1.62a.07.07,0,0,0,0,.05l-.73,1.21L401.68,25a14.48,14.48,0,0,0,3.72,3.9,14.21,14.21,0,0,0,5.17,1.48l24.36,2.24.61-1a.15.15,0,0,0,.1-.05l1-1.69A3.41,3.41,0,0,0,435.52,25.21Z"/></g></g></svg>