<svg xmlns="http://www.w3.org/2000/svg" xmlns:xlink="http://www.w3.org/1999/xlink" width="172" height="59" viewBox="0 0 172 59">
  <defs>
    <style>
      .cls-1 {
        fill: #fff;
        fill-rule: evenodd;
        filter: url(#filter);
      }
    </style>
    <filter id="filter" x="71" y="30" width="172" height="59" filterUnits="userSpaceOnUse">
      <feOffset result="offset" dx="0.588" dy="0.809" in="SourceAlpha"/>
      <feGaussianBlur result="blur" stdDeviation="2.236"/>
      <feFlood result="flood" flood-color="#5b8f96" flood-opacity="0.68"/>
      <feComposite result="composite" operator="in" in2="blur"/>
      <feBlend result="blend" in="SourceGraphic"/>
    </filter>
  </defs>
  <path id="Welcome_to" data-name="Welcome to" class="cls-1" d="M109.854,71.459A247.564,247.564,0,0,0,114.8,46.116a12.737,12.737,0,0,0,.568-2.876l-0.014-.264-0.249.278a12.045,12.045,0,0,0,.48-2.077l-0.081-.26a1.472,1.472,0,0,0,.04-0.465l-0.205-.121a9.65,9.65,0,0,1,.257-1.337l-0.209-.187-0.319.216a0.915,0.915,0,0,0-.033-0.593c-0.242.41-.355,0.747-0.6,1.157l-0.077-.194,0.106-.469-0.066,0c-3.3,4.813-7.891,37.742-10.679,38.757a13.514,13.514,0,0,1-1.168-5.557c-0.066-3.568-.037-8.993.227-12.58,0.242-3.982.674-8.107,0.586-12.07-0.091-2.839-.007-7.275-3.3-7.092a5.6,5.6,0,0,0-1.106.326,3.255,3.255,0,0,0-1.531,1.011C89.9,49.284,83.6,77.48,79.973,78.872c-0.989.055-1.491-4.217-1.472-5.077a13.149,13.149,0,0,1,.205-2.26,1.041,1.041,0,0,1,.084-0.865l-0.135-.059c-0.113-4.425,2.689-19.463,3.81-24.287,0.641-2.747,1.729-6.975,1.641-9.748a5.293,5.293,0,0,0-.282-1.506c-0.7-.623-0.652-1.022-1.055-1.132a2.036,2.036,0,0,0-.663-0.029,3.085,3.085,0,0,0-1.11.26c-1.092.59-.125,1.33-1.11,5.022,0.022,0.4-4.177,18.884-4.8,21.9l0.007,0.132a27.045,27.045,0,0,1-.484,3.2,46.167,46.167,0,0,0-.418,7.96c0.139,4.887.9,10.268,6.044,9.983a3.4,3.4,0,0,0,2.059-1.04c1.538-.879,3.3-3.755,4.352-6.194a42.665,42.665,0,0,0,2.722-6.964c1.1-4.1,8.305-23.148,10.111-23.976l0.015,0.264c0.179,7.993-1.3,15.946-1.056,23.87,0,3.638-.081,11.645,4.194,12.4a7.083,7.083,0,0,0,1.073.271,4.22,4.22,0,0,0,.707-0.37C108.286,78.954,109.169,73.415,109.854,71.459Zm12.693,3.925c-0.571.428-1.333,1-1.843,1.359l-0.531-.037c-2.073-1.6-1.095-9-.351-11.092a8.734,8.734,0,0,0,4.583-2.04c3.978-3.4,2.949-8.828-.876-8.616l-0.2.011c-3.818.344-8.811,10.477-8.192,16.858,0.392,3.484,1.15,6.418,4.755,7.011a1.284,1.284,0,0,0,.531.037,2.149,2.149,0,0,0,1.927-1.033l0.253-.213-0.216-.319,0.26-.081A4.266,4.266,0,0,0,122.547,75.384Zm1.689-18.415c0.436,0.7-.179,2.722-0.608,3.341-0.659,1.227-2.044,2.495-2.9,2.608A15.421,15.421,0,0,1,124.236,56.969Zm9.529,22.488c-0.3.48-.524,1.286-1.249,1.326a0.708,0.708,0,0,0-.4-0.11,8.436,8.436,0,0,1-1-3.649,45.831,45.831,0,0,1,.594-11.938c2.407-5.491,7.2-17.994,6.536-22.851A5.16,5.16,0,0,0,137.9,40.8a0.781,0.781,0,0,1-.29-0.447,1.792,1.792,0,0,0-1.066-.139,17.131,17.131,0,0,1-1.7.293c-3.953,5.048-8.884,27.016-7.379,36.259,0.33,2.363.788,4.652,3.161,5.711l0.066,0c0.2-.011.4,0.044,0.6,0.033l0.132-.007,0.2-.011a0.37,0.37,0,0,0-.4-0.044l0.194-.077a2.375,2.375,0,0,0,1.876-.766l0.194-.077,0-.066-0.2.011,0.246-.344-0.019-.33a4.55,4.55,0,0,0,.63-0.564l0-.066-0.286-.381-0.081-.26Zm2-35.431a80.75,80.75,0,0,1-3.623,13.364C132.19,54.675,134.744,47.059,135.766,44.026Zm8.08,10.729c-3.762,2.524-6.29,11.792-6.063,15.88a8.416,8.416,0,0,0,.516,2.154c0.125,2.242,2.74,4.081,4.85,3.964a3.969,3.969,0,0,0,3.44-2.374c0.385-.22.044-0.4,0.158-0.736l-0.2.011-0.007-.132,0.183-.275-0.008-.132-0.582.231a2.934,2.934,0,0,1-.073-1.319l-0.011-.2-0.411.949c-0.549.824-1.417,1.865-2.472,1.923-4.154-.96,1.191-17.858,3.1-17.964a0.417,0.417,0,0,1,.348.311l1.037,1.993c0.527,1.161.637,1.949,1.758,1.887l0.4-.022a1.051,1.051,0,0,0,.561-0.626l-0.194-2.3a0.967,0.967,0,0,0-.048-0.857c-0.11-1.978-2.33-2.649-4.242-2.542C145.227,54.612,144.439,54.722,143.846,54.755Zm15.216,2.2c0.359-.681.637-0.432,0.846-1.436a1.918,1.918,0,0,0-2.11-1.073l-0.527.029-0.788.11-0.311.348c-0.491,1.879-5.99,11.246-5.393,17.232,0.4,2.359,1.784,3.539,4.158,3.407,2.3-.194,4.487-3.755,5.172-5.711,0.678-2.088,1.634-6.308,1.444-8.546a7.453,7.453,0,0,0-1.249-3.436A2.6,2.6,0,0,0,159.062,56.953ZM154.23,73.558a2.043,2.043,0,0,0-.1-0.656c-0.2-1.245.524-4.857,1.3-7.546a56.743,56.743,0,0,1,2.388-5.821,2.308,2.308,0,0,1,.378.839c0.373,3.154-1.352,10.195-3.525,12.763A0.566,0.566,0,0,1,154.23,73.558Zm10.943-.872a2.918,2.918,0,0,0,2.363,2.051l0.315-.282,0.264-.015,0.139,0.125,0.4,0.11c0.363-1.806,1.85-3.608,2.476-5.429,0.843-2.692,3.239-9.572,5.928-11.176l0,0.066a75.739,75.739,0,0,1-.754,11.418,0.634,0.634,0,0,1-.092.733l-0.11.4a8.1,8.1,0,0,1,1.568,2.029l0.128-.073,0.418,0.374,0.241-.41a2.713,2.713,0,0,0,.92,1.073l0.022-.795,0.267,0.051-0.011-.2,0.22-.806-0.022-.4a1.091,1.091,0,0,0,.282-0.876c0.872-3.356,3.627-9.726,6.078-12.045l0.095,0.524c0.158,4.026-1.392,10.66-1.059,11.9,0.194,1.114.857,2.334,1.388,2.37l1.2,0.2,0.659-.037a0.516,0.516,0,0,1-.278-0.249c0.246-2.725,1.334-10.525,1.238-12.239a10.127,10.127,0,0,0-.043-1.982c-0.184-.916-1.059-2.388-2.059-2.531l-1.07-.205-0.542-.235-0.462.026a0.756,0.756,0,0,0-.772.374c-1.543.813-3.118,3.414-3.895,4.912l-0.256.146a19.2,19.2,0,0,0-.242-4.352,2.4,2.4,0,0,0-2.817-1.894c-0.263.015-.458,0.092-0.721,0.106l-0.806-.22c-2.37.2-5.832,6.938-6.843,8.979l0-.066c0.484-2.011,2.385-9.458,1.96-11.155-0.2-1.18-1.4-1.443-2.326-1.392-0.2.011-.392,0.088-0.59,0.1l-0.124.139C167.317,57.685,163.734,67.011,165.173,72.686ZM199.705,71.1c-0.571.429-1.333,1-1.842,1.359l-0.531-.037c-2.074-1.6-1.1-9-.352-11.092a8.731,8.731,0,0,0,4.583-2.04c3.978-3.4,2.949-8.828-.875-8.616l-0.2.011c-3.817.344-8.811,10.477-8.192,16.858,0.392,3.484,1.15,6.418,4.755,7.011a1.287,1.287,0,0,0,.531.037,2.149,2.149,0,0,0,1.927-1.033l0.253-.213-0.216-.319,0.26-.081A4.251,4.251,0,0,0,199.705,71.1Zm1.69-18.415c0.435,0.7-.18,2.722-0.609,3.341-0.659,1.227-2.044,2.495-2.9,2.608A15.41,15.41,0,0,1,201.4,52.684Zm17.274,22.455c-0.861-.018-1.161-5.425-1.2-6.151a46.229,46.229,0,0,1,.77-8.774c1.051-2.506,4.085-8.627,5.642-15.129l0.989-.055a14.539,14.539,0,0,1,4.048.238,2.484,2.484,0,0,0-.107-0.722c-0.073-1.319-2.67-1.638-4.461-1.736a28.225,28.225,0,0,0,.373-5.18,1.52,1.52,0,0,0,.213-0.938l-0.088-.392a1.15,1.15,0,0,0-.89-0.546,0.243,0.243,0,0,1-.194.077,2.042,2.042,0,0,1-.469-0.106c-0.066,0-.26.081-0.326,0.084l-0.323.15a1.113,1.113,0,0,0-.67-0.161c-0.9.513-2.3,3.766-2.645,4.777-0.344.945-.685,1.956-1.029,2.9a50.788,50.788,0,0,1-6.752,1.1l-1.725-.1L209.852,45a2.464,2.464,0,0,0,.527,1.161,3.887,3.887,0,0,0,2.341.465,39.431,39.431,0,0,0,4.8-.6,71.055,71.055,0,0,0-3.441,23.8c0.095,1.714.707,6.773,3.235,7.03,0.6,0.033.245-.344,0.311-0.348a2.853,2.853,0,0,0,.81.286,0.338,0.338,0,0,0,.315-0.282l-0.466-.04,0.656-.1,0.191-.143-0.008-.132a1.471,1.471,0,0,1,.319-0.216l0.4-.022,0.051-.267a0.348,0.348,0,0,1,.19-0.143l-0.069-.062A7.71,7.71,0,0,1,218.669,75.139Zm0.766-24.317a11.174,11.174,0,0,1,.63-2.945l0-.066a9.389,9.389,0,0,0,.6-2.348,2.247,2.247,0,0,0,.655-0.1C220.637,47.448,219.776,49.811,219.435,50.822Zm2.6-7.949-0.462.026,0.524-1.286,0.187-.209A3.011,3.011,0,0,1,222.036,42.873Zm11.544,9.942c0.359-.681.637-0.432,0.846-1.436a1.918,1.918,0,0,0-2.11-1.073l-0.527.029-0.788.11-0.311.348c-0.491,1.879-5.99,11.246-5.393,17.232,0.4,2.359,1.784,3.539,4.158,3.407,2.3-.194,4.487-3.755,5.172-5.711,0.678-2.088,1.634-6.308,1.444-8.546a7.453,7.453,0,0,0-1.249-3.436A2.6,2.6,0,0,0,233.58,52.815ZM228.748,69.42a2.043,2.043,0,0,0-.1-0.656c-0.2-1.246.524-4.857,1.3-7.546a56.491,56.491,0,0,1,2.388-5.821,2.325,2.325,0,0,1,.378.839c0.373,3.154-1.352,10.195-3.525,12.763A0.567,0.567,0,0,1,228.748,69.42Z" transform="translate(-71 -30)"/>
</svg>
