<svg xmlns="http://www.w3.org/2000/svg" viewBox="0 0 560.08 135.21"><defs><style>.cls-1{fill:#02abcc;}</style></defs><g id="Layer_2" data-name="Layer 2"><g id="Why_We_Like_It" data-name="Why We Like It"><path class="cls-1" d="M64.84,104.4c-1,.43-1.3.72-1.59.72a15.79,15.79,0,0,1-2.3-.72c-9.22-2.16-8.06-19.59-7.63-27.51.43-17.28,4.61-34.41,5.18-51.83v-.58c-4,1.58-22,42.19-24.91,51a92.25,92.25,0,0,1-6.77,14.84c-2.59,5.18-6.76,11.23-10.22,13a7.42,7.42,0,0,1-4.61,2C.76,105.26-.25,93.45,0,82.8A100.47,100.47,0,0,1,1.91,65.52a58.55,58.55,0,0,0,1.44-6.91v-.29C5.08,51.84,16.46,12.1,16.46,11.23c2.59-7.92.57-9.65,3-10.8A6.67,6.67,0,0,1,21.93,0a4.57,4.57,0,0,1,1.44.14c.86.29.72,1.16,2.16,2.6A11.41,11.41,0,0,1,26,6.05c-.14,6.05-3,15.12-4.75,21-3,10.37-11,42.77-11.23,52.42l.28.14c-.57.58-.28,1.44-.28,1.87a28.55,28.55,0,0,0-.72,4.9c-.15,1.87.43,11.23,2.59,11.23C19.91,95,37.05,34.42,54.33,18.86c.57-.57,2.59-2.16,3.45-2a11.88,11.88,0,0,1,2.45-.58c7.2,0,6.48,9.65,6.34,15.84-.29,8.64-1.73,17.57-2.74,26.21-1,7.77-1.73,19.58-2,27.36-.28,3.17.44,9.36,1.88,12.24,6.19-1.87,20.16-73,27.93-83.09h.15l-.29,1,.14.43c.58-.86.87-1.58,1.44-2.45a1.93,1.93,0,0,1,0,1.3l.72-.43.43.43c0,.72-.86,2.16-.72,2.88l.44.29a3.17,3.17,0,0,1-.15,1l.15.57a26.91,26.91,0,0,1-1.3,4.47l.58-.58v.58c0,.72-1.16,5.76-1.59,6.19A541.3,541.3,0,0,1,77.8,85.1C76.07,89.28,73.48,101.23,64.84,104.4Z"/><path class="cls-1" d="M128.77,65.66c0,11.09-3.6,21.46-5.47,33l-.29,1-.14-1.16h-.14c0,.44-.29.87-.15,1.3H122c-.15.58-2.45.86-2.6,1.3a1.59,1.59,0,0,1-.28-.72,6.68,6.68,0,0,0-.15,1.72h-.29a15.88,15.88,0,0,1-2-8.78c0-9.07,5.47-22.46,5-28.66C117.25,67,106.6,89,103,95.9h-.87c-1.29,0-3.16-.14-4.32-.14-1.87,0-2.16-.58-3.6-.72-1.72-2.45-2-3.89-1.87-6.91,1-21.17,18-55,15.41-54.58l.29-.72a15,15,0,0,1,3.31.43c7.2,2.45-2.3,23.91-4.32,27.36-3.17,7.49-5.33,18.29-6,24.48,2.74-7,12.53-25.92,19.87-25.92C124.17,59.61,128.77,62.64,128.77,65.66Z"/><path class="cls-1" d="M140.87,92.45l.57-.58c1.73-.86,19.73-26.64,21.17-28.8,1.15-1.44,4.61-7.49,5.62-7.92H169l.43.29,1.73-.58,1.44.29.72.43,1-.14.28.58v.57h.15l.43.87c-1.87,7.34-2.16,14.68-3.46,22.17-2.73,14.54-9.21,45.22-23.9,53.57h-.29l-2.16,1.15-2.3.72-3.17.14-2.3-.14a11.23,11.23,0,0,1-6.05-3.89L130.07,129l.29-.29,1.58-3.6a16.59,16.59,0,0,1,2.59-4.32l.29.87-.14,1.73H135l.44,2.88.28.86-.28.29.43.57.43,1.59.72.72,1.73.14V130a1.11,1.11,0,0,0,.57.29,2.13,2.13,0,0,0,.87-.29c8.49-3,14.25-15,18.43-27.94,4.32-12.67,6.48-25.92,8.21-33.12h-.29c-4.18,5.19-16.27,26.21-20.74,27.8A8,8,0,0,1,141,98.93c-.43,0-.72.14-1,.14-2.44,0-2.3-1.44-4.32-2.74a11.51,11.51,0,0,1-2.16-6.19c-.86-8.93,10.95-32,10.37-37h.87c1.72,0,3.74.14,4.89,1.58a4.29,4.29,0,0,1,.43,1.73C151,66.67,138.85,85.53,140.87,92.45Z"/><path class="cls-1" d="M260.67,62.35h.44l.43,1.15h.57l-.57,3.17c-1.73,7.06-9.51,31.25-14.4,34.42-.15.28-.29.28-.43.28-.29,0-.72-.57-1.3-.57-.14,0-.29.14-.43.14l-1,.29-.58-.29H243l-.72.29c-1.58,0-1.15-1-2-1.73l-1.3-1c-4.46-2.16-1.87-23-1.29-27.36-2.31,3.46-11.81,27.51-17,28.23-.28-.15-.43-.29-.57-.29s-.29.14-.58.29c-5.76-.87-8.49-5-8.49-10.51,0-11.81,6.33-24.48,7.34-35.28.29-1,0-1.59.43-2.31a3.41,3.41,0,0,1,2-1c.14,0,.43.15.57.15,2.88.72,4.18,2.3,4.18,5,0,13.1-7.34,24.48-7.34,37.29l1.29.15c2.74-4.32,16.56-33.27,19.3-33.7a1.57,1.57,0,0,1,1.15-.28c1.29,0,2.74.86,3.45,1,1.45.58,1.73,1.87,1.73,4.32-.43,7.35-1.73,18.87-1.15,31.25,2.3,0,13.54-33.26,14.4-40.75l.43.43-.29,1.73a19.08,19.08,0,0,1-.43,2.88l.43-.58c0-1,.72-1.87.87-2.73l.86.86.29-.14a12.06,12.06,0,0,1,.14,2.59l.44.57v.58A3.24,3.24,0,0,1,260.67,62.35Zm-20.16,37.3-1-.72Z"/><path class="cls-1" d="M281.41,99.21l-.57.15.43.72-.58.43c-.43,1.3-2.59,2-4.32,2a2.7,2.7,0,0,1-1.15-.15c-7.78-1.73-9.07-8.21-9.5-15.84-.58-14,11.51-35.42,19.87-35.71H286c8.35,0,9.93,12,.86,18.86-2.59,2-6.91,3.89-10.22,3.89-1.87,4.47-4.9,20.45-.58,24.19l1.15.15c1.16-.72,2.88-1.87,4.18-2.74A9.21,9.21,0,0,1,281.41,99.21ZM279,67.82c1.88-.14,5-2.73,6.63-5.33,1-1.29,2.59-5.61,1.72-7.2C284.43,57.46,280,64.37,279,67.82Z"/><path class="cls-1" d="M367.52,65.66a1.55,1.55,0,0,0-.43,1,8.67,8.67,0,0,1-1,2l.15.72.43-.15v.15l-.29.72a6.14,6.14,0,0,0-1,1.87c.43-.29.58-1,1-1.59v.44c0,.86-3.46,6.19-3.89,7.63.87-1.15,1.59-2.31,2.45-3.46-.29.58-.72,1-.86,1.44l.28.43c-.28.72-.86,1-1,1.73a25.29,25.29,0,0,0-2.31,3.6l-.29.15.15.43-.58.14-.29.72a4.43,4.43,0,0,1-1,1.3,36.56,36.56,0,0,1-4,5.61c-3.6,4.61-8.06,12-14.4,12a5.69,5.69,0,0,1-1.58-.15c-6.62-1.15-6.77-6-6.77-10.8,0-17.42,8.79-37.58,13.68-53.42a94,94,0,0,1,4.32-12.67l.29-.15c1.73.72,3.46.44,4.9,3.17,1.87,3.6-1.3,20.16-8.93,35.57-3.6,9.36-6.91,18.72-6.91,27.79,0,2.16-.15,4.32.86,6H341A203.73,203.73,0,0,0,362.63,71a60.74,60.74,0,0,1,5-7v.71A2.35,2.35,0,0,1,367.52,65.66Z"/><path class="cls-1" d="M378,58.9h.29a8.28,8.28,0,0,1,3.74-1.16c.87,0,2.6.58,2.6,1.87,0,1.88-.87,4.47-1.16,6.48-1.72,9.22-6.62,20.31-6.62,29.24a10.06,10.06,0,0,0,.58,4.17h-.58l-.43-.29h-.58l.15.29-.29.87-.29-.15c-.43-.43-.58-.43-.86-.43-3.46-1-5-4.61-5-7.92,0-8.64,3.45-23.47,7.34-31.25V59.9l.43-.43C377.46,59.47,378,59.18,378,58.9ZM383.65,53c-.43,0-1,.43-1.59.43-.14,0-.14-.28-.28-.28-.58,0-.72.57-1.16.57s-.57-1.73-.57-2c0-1.58.72-2.59,1.73-4a5.37,5.37,0,0,1,2-.28h1.59c.86.28,2.44,1.15,2.44,2.16s-2,3.45-3.16,3.6h-.15c-.43,0-.43.14-.43.28C384.08,53.14,383.65,53,383.65,53Z"/><path class="cls-1" d="M428.43,41.33l.43-.58h.58a.84.84,0,0,0,.57.15,8.77,8.77,0,0,0,2-.29,12.45,12.45,0,0,1,1.3.72h.28l.44.14v.43c-1.16,2.45-2.16,4.61-3.32,6.91-1.58,2.45-12.24,15-14.54,16.85-.72.15-10.66,10.8-11.23,12.39,1.44,7.77,7.05,16.27,15.84,16.27h1.73a8.56,8.56,0,0,0,1.72-.15c-.43.44-.57.72-1.15.87-.14.14.15.14.15.14h-.15c-.57,0-1.29.15-1.87.15h-.43a9.21,9.21,0,0,1-3.46.43l.43.14c-.43,0-1,.15-1.44.15h-.28a3.47,3.47,0,0,0-1.3-.15c-.14-.14-.43-.14-1-.14v.29c.72,0,2.31.72,3,.72l.14.14h-1c-7.2,0-12.09-5.76-15.84-11.09-1.29,4-3,9.07-3,13.11a1.3,1.3,0,0,0-.43,1.15,6.08,6.08,0,0,0,.86,2.73l-.43-.14v.14a3.72,3.72,0,0,0,1.29,1.3l.29.29c-1.15.29-2,1.29-3,1.29-3.75,0-5.33-9.36-5.33-12.38,0-5.18,2.59-14.54,5.76-24.62,6.05-20.16,14.4-43.78,14.11-45.36l.15-.72a5.84,5.84,0,0,1,3.16-1c2.45,0,2.45,1.73,2.45,3.6,0,13.68-6.48,25.92-9.79,38.88H406l.14.14C409.57,60.77,427.57,44.35,428.43,41.33Z"/><path class="cls-1" d="M445.56,99.21l-.57.15.43.72-.58.43c-.43,1.3-2.59,2-4.32,2a2.7,2.7,0,0,1-1.15-.15c-7.77-1.73-9.07-8.21-9.5-15.84-.58-14,11.52-35.42,19.87-35.71h.43c8.35,0,9.94,12,.87,18.86-2.6,2-6.92,3.89-10.23,3.89-1.87,4.47-4.89,20.45-.57,24.19l1.15.15c1.15-.72,2.88-1.87,4.17-2.74A9.06,9.06,0,0,1,445.56,99.21Zm-2.44-31.39c1.87-.14,5-2.73,6.62-5.33,1-1.29,2.59-5.61,1.73-7.2C448.59,57.46,444.12,64.37,443.12,67.82Z"/><path class="cls-1" d="M506.33,58.9h.29a8.28,8.28,0,0,1,3.74-1.16c.87,0,2.6.58,2.6,1.87,0,1.88-.87,4.47-1.16,6.48-1.72,9.22-6.62,20.31-6.62,29.24a10.06,10.06,0,0,0,.58,4.17h-.58l-.43-.29h-.58l.15.29-.29.87-.29-.15c-.43-.43-.58-.43-.86-.43-3.46-1-5-4.61-5-7.92,0-8.64,3.45-23.47,7.34-31.25V59.9l.43-.43C505.76,59.47,506.33,59.18,506.33,58.9ZM512,53c-.43,0-1,.43-1.59.43-.14,0-.14-.28-.28-.28-.58,0-.72.57-1.16.57s-.57-1.73-.57-2c0-1.58.72-2.59,1.73-4a5.37,5.37,0,0,1,2-.28h1.59c.86.28,2.44,1.15,2.44,2.16s-2,3.45-3.16,3.6h-.15c-.43,0-.43.14-.43.28C512.38,53.14,512,53,512,53Z"/><path class="cls-1" d="M537,107l.15.14c-.15,0-.29.15-.44.29l-.14.58h-.86a3,3,0,0,0-.72.43v.29l-.44.29-1.44.14,1,.14a.73.73,0,0,1-.72.58c-.57,0-1.29-.58-1.73-.72-.14,0,.58.86-.72.72-5.47-.86-6.19-12-6.19-15.7.29-17.85,4.32-35.13,10.37-51.4a86.45,86.45,0,0,1-10.51.72,8.49,8.49,0,0,1-5-1.3,5.31,5.31,0,0,1-1-2.59V38.45l3.74.43c4.76,0,9.65-.86,14.84-1.58.86-2,1.72-4.18,2.59-6.2S544.06,22,546.07,21a2.41,2.41,0,0,1,1.44.44l.72-.29c.15,0,.58-.15.72-.15a4.6,4.6,0,0,0,1,.29.52.52,0,0,0,.43-.14s1.88.43,1.88,1.29l.14.87c0,.14-.14,2-.58,2a60.83,60.83,0,0,1-1.44,11.24c3.89.43,9.51,1.44,9.51,4.32,0,.14.29,1.29.14,1.58a31.82,31.82,0,0,0-8.78-1H549.1c-4.18,14-11.52,26.93-14.11,32.26a100,100,0,0,0-2.74,19c0,1.59,0,13.4,1.87,13.54C535.13,106.27,535.85,107.13,537,107Zm6.48-65.23a5,5,0,0,1-1.44.14,20.52,20.52,0,0,1-1.58,5v.15a24.07,24.07,0,0,0-1.73,6.33C539.59,51.26,541.75,46.22,543.48,41.76Zm2.59-8.5-.43.44-1.29,2.73h1C545.93,34.56,546.36,33.26,546.07,33.26Z"/></g></g></svg>